<svg width="16" height="16" class="" viewBox="0 0 16 16" fill="none" xmlns="http://www.w3.org/2000/svg">
    <circle cx="8" cy="8" r="8" fill="white"/>
    <path d="M10.4714 7.13799C10.7317 6.87764 10.7317 6.45553 10.4714 6.19518C10.2111 5.93483 9.78894 5.93483 9.52859 6.19518L7.33333 8.39044L6.4714 7.52851C6.21105 7.26816 5.78894 7.26816 5.52859 7.52851C5.26824 7.78886 5.26824 8.21097 5.52859 8.47132L6.86192 9.80466C7.12227 10.065 7.54438 10.065 7.80473 9.80466L10.4714 7.13799Z" fill="#10B981"></path>
    <path fill-rule="evenodd" clip-rule="evenodd" d="M8 1.33325C4.3181 1.33325 1.33333 4.31802 1.33333 7.99992C1.33333 11.6818 4.3181 14.6666 8 14.6666C11.6819 14.6666 14.6667 11.6818 14.6667 7.99992C14.6667 4.31802 11.6819 1.33325 8 1.33325ZM2.66666 7.99992C2.66666 5.0544 5.05448 2.66659 8 2.66659C10.9455 2.66659 13.3333 5.0544 13.3333 7.99992C13.3333 10.9454 10.9455 13.3333 8 13.3333C5.05448 13.3333 2.66666 10.9454 2.66666 7.99992Z" fill="#10B981"></path>
</svg>
